<?xml version="1.0" standalone="no"?>
<!DOCTYPE svg PUBLIC "-//W3C//DTD SVG 20010904//EN"
 "http://www.w3.org/TR/2001/REC-SVG-20010904/DTD/svg10.dtd">
<svg version="1.0" xmlns="http://www.w3.org/2000/svg"
 width="512.000000pt" height="512.000000pt" viewBox="0 0 512.000000 512.000000"
 preserveAspectRatio="xMidYMid meet">
<metadata>
Created by potrace 1.14, written by Peter Selinger 2001-2017
</metadata>
<g transform="translate(0.000000,512.000000) scale(0.100000,-0.100000)"
fill="#000000" stroke="none">
<path d="M1177 4009 c-10 -13 -17 -18 -17 -11 0 6 -5 12 -11 12 -5 0 -8 -4 -4
-9 3 -5 0 -13 -6 -17 -8 -4 -9 -3 -5 4 4 6 -4 16 -16 23 -22 12 -22 11 -8 -6
14 -17 14 -17 -19 -1 -18 10 -30 13 -27 8 3 -6 -1 -13 -10 -16 -23 -9 -31 -7
-16 3 11 7 10 9 -3 14 -9 4 -13 3 -10 -3 8 -13 -1 -13 -27 1 -15 8 -19 8 -14
0 8 -12 -21 -11 -41 2 -7 4 -19 -2 -28 -15 l-17 -23 5 25 c6 24 5 24 -8 6 -8
-11 -15 -14 -15 -8 0 7 -5 12 -11 12 -5 0 -7 -4 -4 -10 3 -5 1 -10 -4 -10 -6
0 -11 5 -11 12 0 6 -3 8 -6 5 -4 -3 -16 -1 -28 5 -17 9 -19 8 -8 -3 6 -7 12
-18 12 -23 0 -6 -5 -4 -10 4 -9 13 -11 13 -21 0 -9 -13 -10 -13 -6 2 3 9 0 19
-8 22 -8 3 -12 0 -9 -7 5 -15 -33 -20 -41 -6 -10 15 -25 10 -26 -8 0 -15 -2
-15 -9 2 -6 13 -9 15 -9 5 -1 -12 -3 -12 -9 -2 -5 7 -18 14 -31 17 -12 2 -19
0 -16 -6 4 -5 11 -6 17 -3 7 4 8 2 4 -4 -5 -9 -15 -8 -38 4 -16 9 -27 11 -24
6 3 -6 -1 -13 -10 -16 -23 -9 -31 -7 -16 3 11 7 10 9 -3 14 -9 4 -13 3 -10 -3
8 -13 -1 -13 -27 1 -11 6 -18 7 -14 1 3 -5 -5 -9 -19 -9 -14 0 -22 4 -18 10 3
6 1 7 -5 3 -6 -4 -9 -14 -5 -24 3 -11 -1 -8 -12 6 -13 17 -20 20 -30 12 -10
-8 -14 -7 -18 2 -4 8 -6 7 -6 -4 -1 -10 -6 -18 -12 -18 -5 0 -7 5 -4 10 3 6 1
10 -4 10 -6 0 -11 -6 -11 -12 0 -9 -3 -9 -9 1 -7 11 -10 10 -14 -5 -4 -16 -5
-17 -6 -1 0 9 -6 17 -12 17 -5 0 -7 -6 -3 -12 5 -8 0 -7 -11 2 -11 9 -16 10
-11 3 4 -7 3 -13 -1 -13 -5 0 -15 6 -23 13 -12 10 -12 9 -1 -5 11 -15 11 -19
-3 -24 -11 -4 -13 -10 -7 -18 10 -12 11 -16 11 -47 0 -19 2 -20 18 -8 15 13
16 12 4 -3 -8 -9 -20 -14 -28 -11 -8 3 -14 0 -14 -7 0 -6 5 -8 12 -4 8 5 9 2
4 -11 -5 -15 -4 -16 9 -5 13 11 14 10 9 -5 -6 -14 -4 -16 7 -10 12 7 12 6 1
-7 -9 -12 -10 -18 -2 -23 8 -5 8 -11 1 -19 -6 -7 -7 -17 -3 -21 4 -5 2 -5 -4
-2 -6 4 -10 20 -9 37 1 16 -1 30 -6 30 -5 0 -7 -11 -5 -25 3 -14 0 -25 -6 -25
-6 0 -3 -9 7 -20 14 -15 15 -20 4 -17 -8 2 -11 2 -6 0 4 -3 4 -9 1 -15 -4 -5
4 -4 17 3 20 10 22 10 12 -2 -6 -8 -10 -29 -8 -47 2 -24 -3 -35 -16 -43 -11
-5 -16 -15 -13 -21 11 -18 11 -78 0 -78 -5 0 -1 -9 9 -20 14 -15 15 -20 4 -17
-8 2 -11 2 -6 0 4 -3 4 -9 1 -15 -4 -5 4 -4 17 3 20 10 22 10 12 -2 -6 -8 -10
-29 -8 -47 2 -24 -3 -35 -16 -43 -11 -5 -16 -15 -13 -21 11 -17 11 -78 1 -78
-5 0 -4 -7 3 -15 7 -8 10 -21 7 -29 -4 -10 -1 -13 7 -10 7 3 13 -2 13 -11 0
-9 -6 -14 -14 -11 -9 4 -11 1 -7 -6 5 -8 1 -9 -12 -5 -16 6 -17 5 -4 -5 16
-14 23 -88 8 -88 -5 0 -6 -6 -1 -12 11 -18 12 -68 1 -68 -5 0 -6 -6 -1 -12 11
-18 12 -68 1 -68 -5 0 -6 -6 -1 -12 11 -18 12 -68 1 -68 -5 0 -6 -4 -3 -10 12
-19 14 -50 3 -50 -6 0 -3 -9 7 -20 14 -15 15 -20 4 -17 -8 2 -11 2 -6 0 4 -3
4 -9 1 -15 -4 -5 4 -4 17 3 20 10 22 10 12 -2 -6 -8 -10 -29 -8 -47 2 -24 -3
-35 -16 -43 -11 -5 -16 -15 -13 -21 11 -18 11 -78 0 -78 -5 0 -1 -9 9 -20 14
-15 15 -20 4 -17 -8 2 -11 2 -6 0 4 -3 4 -9 1 -15 -4 -5 4 -4 17 3 20 10 22
10 12 -2 -6 -8 -10 -29 -8 -47 2 -24 -3 -35 -16 -43 -11 -5 -16 -15 -13 -21
11 -17 11 -78 1 -78 -5 0 -4 -7 3 -15 7 -8 10 -21 7 -29 -4 -10 -1 -13 7 -10
7 3 13 -2 13 -11 0 -9 -6 -14 -14 -11 -9 4 -11 1 -7 -6 5 -8 1 -9 -12 -5 -16
6 -17 5 -4 -5 16 -14 23 -88 8 -88 -5 0 -6 -6 -1 -12 11 -18 12 -68 1 -68 -5
0 -6 -6 -1 -12 11 -18 12 -68 1 -68 -5 0 -6 -6 -1 -12 11 -18 12 -68 1 -68 -5
0 -6 -4 -3 -10 12 -19 14 -50 3 -50 -7 0 -7 -4 -1 -12 11 -15 11 -48 0 -65 -4
-6 -3 -14 3 -18 7 -4 7 -12 0 -25 -7 -13 -6 -19 5 -23 9 -4 12 -1 8 9 -3 7 0
14 6 14 6 0 10 -3 10 -7 -1 -5 -1 -17 0 -28 1 -17 3 -18 11 -5 5 8 10 10 10 3
0 -12 24 -12 36 0 4 4 16 -1 27 -10 12 -11 17 -12 12 -4 -6 11 -3 13 18 7 16
-4 27 -1 30 7 4 9 6 9 6 0 1 -7 6 -13 12 -13 5 0 7 5 3 12 -5 7 -3 8 7 3 17
-11 51 -11 68 0 10 5 12 4 7 -3 -4 -7 -1 -12 9 -12 10 0 13 5 9 12 -5 7 -3 8
6 3 20 -12 70 -14 70 -2 0 5 10 2 22 -9 12 -10 18 -13 14 -6 -6 9 4 12 41 10
26 -1 54 1 62 6 10 6 12 5 7 -2 -4 -7 -1 -12 9 -12 10 0 13 5 9 13 -5 7 0 6
11 -3 15 -12 19 -12 23 -2 3 10 9 9 25 -5 11 -10 17 -12 12 -4 -6 11 -3 13 18
7 16 -4 27 -1 30 7 4 9 6 9 6 0 1 -7 6 -13 12 -13 5 0 7 5 3 12 -5 7 -3 8 7 3
19 -13 89 -14 89 -2 0 6 10 2 22 -9 12 -10 18 -13 14 -6 -6 10 7 12 58 9 37
-3 66 0 66 5 0 5 5 6 10 3 6 -4 7 -12 3 -18 -5 -9 -3 -9 8 -1 17 13 61 25 55
15 -3 -4 10 -7 29 -7 21 0 31 4 27 11 -3 5 2 4 11 -4 13 -10 17 -11 17 -1 0 9
7 7 22 -6 12 -10 19 -14 16 -9 -3 6 0 15 7 22 10 10 14 9 19 -2 3 -9 12 -12
21 -9 9 4 14 13 11 21 -3 8 -1 11 5 8 5 -4 17 -1 26 7 12 9 15 9 9 0 -4 -6 -3
-12 3 -12 5 0 13 5 16 10 3 6 11 10 17 10 6 0 5 -7 -3 -17 -12 -16 -12 -17 2
-6 9 7 20 9 24 5 5 -4 5 -1 0 7 -6 10 1 12 33 8 28 -3 39 -1 36 8 -7 18 41 36
55 22 9 -9 11 -8 5 7 -5 14 -3 17 7 14 8 -3 13 -12 11 -19 -1 -9 3 -7 12 4 9
11 20 15 31 10 10 -3 16 -2 13 3 -3 5 0 15 8 22 11 10 14 10 15 0 0 -7 4 -4 9
7 5 11 9 15 9 9 1 -6 8 -11 16 -11 10 0 12 4 5 12 -8 9 -4 12 15 10 14 -2 23
1 19 6 -3 5 -10 7 -15 4 -15 -10 -10 2 8 16 11 10 14 10 9 2 -11 -19 5 -15 20
5 11 14 15 14 22 4 7 -11 10 -10 16 3 3 9 3 21 0 27 -4 6 2 5 15 -1 18 -10 20
-9 14 6 -6 16 -5 16 10 4 15 -12 17 -12 12 2 -4 8 -1 18 4 22 6 3 8 11 5 17
-4 7 -2 8 5 4 9 -6 9 -11 1 -21 -8 -9 -8 -15 0 -20 6 -4 10 -3 9 2 -4 15 13
43 22 37 5 -3 9 0 9 7 0 6 14 27 30 46 17 18 30 28 30 22 0 -8 4 -9 13 0 8 6
16 8 19 5 3 -3 6 1 5 8 -1 30 4 48 13 48 5 0 7 -8 4 -17 -5 -14 -4 -15 4 -4 6
8 8 21 4 29 -4 11 -1 14 11 9 9 -3 16 -3 15 1 -1 4 1 14 4 22 4 8 9 23 12 32
3 12 11 16 23 11 15 -5 15 -3 -2 10 -20 16 -20 16 2 12 13 -2 22 -1 22 3 -1 4
0 9 1 12 8 21 6 40 -3 41 -7 0 -2 4 11 9 12 5 22 14 22 20 0 6 -5 8 -12 4 -7
-4 -8 -3 -4 5 4 6 12 8 18 5 7 -5 9 2 4 20 -4 16 -2 26 5 26 6 0 9 6 6 13 -3
8 1 14 9 14 12 0 11 -5 -2 -26 -15 -24 -15 -25 0 -10 9 8 18 25 21 38 2 13 10
29 16 37 10 12 9 13 -4 8 -14 -5 -17 10 -7 36 1 3 2 9 1 13 -1 5 3 6 9 2 8 -5
7 -12 -2 -23 -10 -14 -10 -15 2 -5 14 13 22 56 9 47 -15 -9 -18 14 -4 26 12
10 13 16 3 29 -11 14 -11 14 4 3 11 -9 18 -10 23 -2 3 5 1 10 -5 10 -6 0 -8 5
-5 10 4 6 12 8 18 4 7 -3 3 2 -7 10 -11 9 -14 16 -7 16 7 0 9 5 6 10 -3 6 2
10 12 11 15 0 15 2 3 7 -21 10 -22 122 -1 114 10 -4 12 -1 5 9 -12 19 -14 99
-2 99 5 0 6 -4 3 -10 -3 -5 -2 -10 3 -10 6 0 13 7 16 16 3 8 2 13 -3 10 -5 -3
-12 1 -15 10 -3 8 -2 12 3 9 18 -11 21 14 3 27 -18 14 -22 31 -9 44 15 15 6
26 -10 13 -15 -11 -16 -11 -6 0 8 9 9 21 2 38 -5 15 -5 22 0 18 5 -3 12 -1 16
5 3 5 2 10 -3 10 -5 0 -12 11 -14 25 -4 20 -2 23 8 15 10 -9 11 -6 7 9 -3 12
-9 19 -13 16 -5 -3 -6 5 -3 17 4 19 3 20 -6 8 -18 -25 -12 -1 7 27 9 15 11 24
5 20 -9 -6 -12 0 -9 22 2 19 -2 35 -12 43 -11 9 -14 9 -9 1 4 -6 2 -15 -4 -19
-8 -4 -9 -3 -5 4 4 7 2 12 -5 12 -7 0 -4 7 7 16 17 14 17 15 1 10 -11 -4 -16
-2 -12 5 4 5 1 17 -6 25 -10 12 -9 13 7 8 18 -5 18 -5 2 9 -14 11 -15 16 -5
27 10 10 9 12 -4 7 -14 -4 -16 1 -14 28 1 19 -2 32 -6 29 -4 -2 -10 0 -14 6
-4 6 -11 7 -17 4 -7 -4 -8 -2 -4 5 4 6 12 9 17 6 5 -4 9 -1 9 4 0 6 -4 11 -9
11 -6 0 -8 9 -6 20 2 12 0 18 -6 15 -5 -4 -7 -11 -4 -16 4 -5 1 -9 -4 -9 -6 0
-11 9 -11 21 0 11 -4 17 -10 14 -5 -3 -10 1 -10 10 0 9 5 13 10 10 6 -3 10 -1
10 6 0 7 -8 9 -21 6 -17 -5 -18 -3 -7 11 11 13 11 15 -4 9 -13 -4 -15 -2 -11
10 4 11 2 14 -5 9 -7 -4 -12 -1 -12 9 0 9 4 14 8 11 5 -3 9 1 9 9 0 12 -4 12
-19 -2 -11 -10 -19 -13 -18 -8 5 23 -1 36 -12 29 -10 -6 -10 -4 0 7 15 16 16
29 1 29 -5 0 -7 -4 -4 -10 12 -19 -14 -10 -28 10 -8 11 -17 17 -22 12 -4 -4
-2 4 5 18 13 24 12 24 -5 10 -13 -10 -16 -11 -11 -2 5 9 1 15 -13 19 -20 5
-26 15 -22 37 1 5 -5 4 -13 -4 -12 -9 -16 -9 -16 -1 0 7 -5 9 -10 6 -6 -4 -10
-3 -9 2 1 4 -1 16 -6 26 -6 15 -10 16 -17 5 -7 -9 -8 -6 -5 10 3 13 3 21 0 18
-4 -3 -15 2 -25 11 -22 19 -52 27 -41 10 3 -6 -5 -2 -19 9 -14 10 -24 22 -21
27 2 4 -1 7 -6 7 -6 0 -11 -5 -11 -10 0 -6 -6 -5 -14 2 -8 7 -12 16 -9 21 2 4
-5 7 -17 7 -14 0 -19 4 -14 13 6 10 4 10 -7 0 -17 -17 -32 -17 -26 0 4 10 -3
12 -24 9 -21 -3 -29 0 -29 11 0 9 -4 19 -10 22 -6 4 -7 -1 -3 -12 5 -14 1 -13
-16 5 -13 13 -27 19 -34 15 -21 -13 -38 -12 -44 3 -3 8 -9 12 -13 9 -5 -3 -16
2 -25 11 -12 12 -19 14 -27 6 -8 -8 -15 -7 -25 3 -7 8 -20 12 -28 8 -9 -3 -23
1 -32 8 -12 10 -15 10 -9 2 5 -9 -1 -13 -19 -13 -18 0 -24 4 -19 13 6 9 4 9
-7 1 -23 -17 -89 -11 -105 11 -12 16 -14 16 -14 3 0 -9 -5 -20 -12 -24 -6 -4
-9 -3 -6 2 3 5 0 15 -8 22 -10 9 -14 9 -14 1 0 -6 -8 -1 -18 11 l-19 23 -16
-24z m33 -15 c0 -12 -2 -12 -14 -2 -8 7 -12 16 -9 21 7 11 23 -2 23 -19z
m-789 -7 c-10 -9 -11 -8 -5 6 3 10 9 15 12 12 3 -3 0 -11 -7 -18z m516 1 c-3
-8 -6 -5 -6 6 -1 11 2 17 5 13 3 -3 4 -12 1 -19z m-404 -5 c-7 -2 -19 -2 -25
0 -7 3 -2 5 12 5 14 0 19 -2 13 -5z m80 0 c-7 -2 -19 -2 -25 0 -7 3 -2 5 12 5
14 0 19 -2 13 -5z m400 0 c-7 -2 -19 -2 -25 0 -7 3 -2 5 12 5 14 0 19 -2 13
-5z m80 0 c-7 -2 -19 -2 -25 0 -7 3 -2 5 12 5 14 0 19 -2 13 -5z m-806 -18 c0
-8 -4 -15 -9 -15 -10 0 -11 14 -1 23 9 10 10 9 10 -8z m8 -43 c-3 -3 -11 0
-18 7 -9 10 -8 11 6 5 10 -3 15 -9 12 -12z m1641 -133 c19 -22 19 -22 -3 -8
-13 8 -23 17 -23 21 0 12 6 9 26 -13z m-1646 -155 c0 -8 -19 -13 -24 -6 -3 5
1 9 9 9 8 0 15 -2 15 -3z m575 -14 c-6 10 -1 11 19 6 18 -4 26 -2 27 6 0 10 2
10 6 1 2 -7 9 -13 14 -13 6 0 7 5 3 12 -5 7 -3 8 7 3 19 -13 89 -14 89 -2 0 6
10 2 22 -9 12 -10 18 -14 14 -7 -5 9 8 12 49 10 30 -1 55 -6 55 -11 0 -6 7 -1
16 10 8 10 13 14 10 8 -3 -7 3 -14 14 -17 11 -3 20 -2 20 2 0 5 18 8 40 7 27
-1 39 -5 36 -13 -3 -7 0 -15 6 -19 7 -4 8 -3 4 4 -4 7 -1 12 8 12 10 0 13 -6
10 -17 -5 -17 -5 -17 6 0 6 9 16 17 22 17 7 0 7 -4 -1 -14 -9 -11 -6 -12 15
-8 16 3 25 1 21 -5 -3 -5 5 -9 18 -9 13 0 21 4 19 8 -3 5 -10 5 -16 2 -7 -5
-8 -2 -4 5 6 9 12 9 25 -3 12 -11 20 -13 28 -5 7 7 9 3 5 -16 -4 -24 -2 -26
17 -20 13 4 21 2 21 -6 0 -8 5 -8 17 2 13 11 15 11 9 1 -6 -9 -3 -12 10 -10
13 2 20 -4 22 -19 2 -13 8 -23 13 -23 6 0 7 4 4 10 -3 6 1 7 9 4 9 -3 16 -14
16 -23 0 -14 2 -14 11 -1 9 12 10 11 6 -7 -4 -19 -2 -21 13 -13 16 9 18 7 15
-11 -3 -17 -2 -19 10 -9 11 9 12 7 8 -8 -3 -15 3 -23 26 -33 26 -11 28 -15 13
-21 -14 -6 -14 -7 4 -7 23 -1 47 -23 50 -47 1 -7 12 -27 23 -43 23 -33 29 -56
6 -25 -14 18 -14 18 -8 -3 5 -21 15 -28 36 -24 4 1 4 -11 1 -25 -6 -22 -4 -25
7 -19 12 7 12 6 1 -7 -13 -16 -7 -48 10 -48 6 0 5 -7 -2 -15 -10 -13 -11 -18
-1 -28 10 -9 11 -9 8 3 -2 8 -2 12 0 7 3 -4 10 -5 16 -1 7 3 1 -4 -13 -17
l-25 -22 24 8 c15 5 21 4 17 -3 -3 -6 -2 -13 4 -17 6 -4 8 -11 4 -16 -3 -5 -1
-16 6 -24 8 -9 8 -15 0 -20 -6 -3 -7 -11 -4 -17 4 -7 2 -8 -4 -4 -14 9 -15 -3
-2 -24 6 -9 5 -17 -1 -21 -7 -4 -3 -13 8 -24 17 -18 17 -18 -5 -13 -12 3 -20
2 -16 -3 3 -5 12 -9 20 -9 8 0 12 -5 9 -10 -4 -6 -11 -8 -16 -5 -5 3 -6 -1 -3
-9 3 -9 11 -16 18 -16 6 0 4 -5 -4 -10 -8 -5 -11 -10 -6 -10 5 0 3 -7 -4 -16
-8 -8 -9 -14 -4 -13 21 4 26 -2 14 -16 -7 -8 -10 -24 -7 -36 4 -14 1 -19 -7
-16 -8 3 -13 -8 -15 -36 -1 -23 -7 -44 -13 -48 -6 -4 -3 -11 8 -19 18 -11 18
-11 -2 -7 -21 4 -26 -15 -10 -41 4 -7 2 -12 -5 -12 -8 0 -7 -5 2 -17 13 -15
12 -15 -11 -3 -23 12 -24 12 -11 -4 12 -14 12 -19 1 -29 -9 -9 -11 -9 -6 0 3
6 2 14 -3 17 -5 3 -7 -8 -6 -24 1 -17 -1 -30 -5 -30 -4 0 -6 -11 -5 -25 2 -14
-1 -23 -6 -19 -5 3 -9 -2 -9 -10 0 -9 -5 -16 -11 -16 -5 0 -7 6 -3 13 4 6 3 8
-1 4 -9 -7 -13 -23 -17 -58 -1 -10 -8 -15 -17 -11 -9 3 -12 1 -7 -6 4 -7 1
-12 -8 -12 -9 0 -16 -5 -16 -11 0 -5 5 -7 12 -3 7 5 8 3 4 -5 -5 -7 -14 -10
-22 -7 -8 3 -13 0 -11 -7 1 -7 -3 -11 -10 -10 -6 1 -10 -8 -8 -23 2 -23 1 -24
-16 -8 -17 16 -18 15 -14 -5 2 -11 -1 -21 -6 -21 -6 0 -8 -4 -5 -8 3 -5 -1 -9
-9 -9 -11 0 -12 4 -4 14 7 8 8 13 1 13 -13 0 -24 -29 -15 -43 4 -7 -1 -6 -10
2 -15 12 -17 12 -12 -1 3 -8 0 -15 -7 -16 -42 -3 -56 -7 -52 -14 3 -5 10 -5
16 -2 7 4 8 2 4 -5 -4 -6 -16 -9 -26 -6 -10 3 -22 0 -26 -6 -5 -8 -3 -9 6 -4
9 5 11 4 6 -4 -5 -7 -13 -8 -24 -2 -11 6 -20 4 -30 -7 -10 -13 -12 -13 -7 -2
6 13 5 13 -7 0 -7 -8 -22 -22 -32 -30 -18 -13 -19 -13 -11 0 4 8 15 24 24 35
9 11 1 7 -17 -9 -17 -17 -32 -26 -32 -20 0 5 -5 2 -10 -6 -6 -9 -10 -10 -10
-3 0 7 -9 9 -27 4 -16 -4 -41 -4 -56 0 -23 6 -27 5 -18 -5 8 -9 7 -13 -4 -13
-8 0 -15 4 -15 8 0 4 -7 10 -16 13 -13 5 -14 4 -6 -7 9 -10 8 -14 -3 -14 -8 0
-15 4 -15 8 0 4 -7 10 -16 13 -15 6 -15 4 -3 -10 13 -16 12 -16 -6 -7 -11 6
-26 8 -34 5 -9 -3 -11 0 -6 8 5 8 4 11 -3 6 -6 -4 -8 -14 -5 -24 4 -10 -2 -7
-15 8 -19 24 -21 24 -28 6 -7 -19 -8 -19 -15 0 -7 17 -8 17 -8 2 -1 -10 -6
-18 -12 -18 -5 0 -7 5 -4 11 4 6 0 9 -11 7 -11 -2 -22 -10 -26 -18 -5 -12 -7
-12 -7 3 -1 9 -8 17 -16 17 -9 0 -12 -6 -8 -17 5 -15 3 -14 -10 2 -9 11 -17
16 -17 12 0 -4 -10 -3 -22 3 -23 11 -23 11 -3 -6 18 -15 18 -16 2 -10 -10 3
-23 6 -28 6 -4 0 -6 8 -3 18 5 13 4 14 -4 3 -6 -8 -8 -21 -5 -30 3 -12 2 -12
-7 2 -11 17 -36 25 -25 8 3 -5 0 -13 -6 -17 -7 -4 -9 -3 -5 4 3 6 2 13 -4 17
-5 3 -10 0 -10 -7 0 -9 -3 -9 -8 -2 -4 6 -15 14 -26 17 -14 6 -16 10 -7 21 6
7 9 27 7 44 -2 21 0 29 8 25 6 -4 2 4 -8 16 -20 22 -20 22 0 15 16 -6 17 -5 7
7 -14 14 -18 33 -5 25 4 -2 8 11 8 29 0 18 -4 31 -8 29 -14 -9 -8 9 10 29 9
11 12 17 5 14 -6 -4 -14 -3 -18 2 -3 5 2 14 11 19 15 8 15 10 0 15 -11 5 -15
3 -10 -5 4 -7 3 -8 -5 -4 -8 5 -7 13 4 28 11 16 12 25 3 35 -8 10 -7 13 2 13
10 0 9 4 -1 16 -17 20 -20 58 -4 44 8 -7 11 -3 10 13 -1 12 3 26 9 30 7 6 5 7
-6 4 -9 -3 -19 0 -22 8 -3 10 0 12 12 8 14 -6 15 -4 4 9 -10 13 -10 17 0 21 8
3 6 6 -5 6 -10 1 -15 6 -12 11 4 6 10 8 14 6 4 -3 7 5 6 17 -1 12 2 25 7 28 5
3 2 9 -7 12 -11 5 -14 3 -9 -6 4 -6 3 -8 -1 -4 -12 10 -15 38 -4 31 10 -6 10
-5 13 48 1 20 -1 35 -6 32 -14 -9 -9 9 10 29 9 11 12 17 5 14 -6 -4 -14 -3
-18 2 -3 5 2 14 11 19 15 8 15 10 0 15 -11 5 -15 3 -10 -5 4 -7 3 -8 -5 -4 -8
5 -7 13 4 28 11 16 12 25 3 35 -8 10 -7 13 2 13 10 0 9 4 -1 16 -17 20 -20 58
-4 44 8 -7 11 -3 10 13 -1 12 3 26 9 30 7 6 5 7 -6 4 -9 -3 -19 0 -22 8 -3 10
0 12 12 8 14 -6 15 -4 4 9 -10 13 -10 17 0 21 8 3 6 6 -5 6 -10 1 -15 6 -12
11 4 6 10 8 14 6 4 -3 7 5 6 17 -1 12 2 25 7 28 5 3 2 9 -7 12 -11 5 -14 3 -9
-6 4 -6 3 -8 -1 -4 -12 10 -15 38 -4 31 5 -3 10 7 10 23 1 15 2 35 3 43 1 8
-5 23 -13 33 -14 16 -13 17 5 11 16 -7 17 -6 6 8 -10 13 -10 17 0 21 8 3 6 6
-5 6 -10 1 -15 6 -12 11 4 6 11 8 16 5 5 -3 6 1 3 9 -3 9 -9 14 -13 12 -4 -3
-7 4 -7 14 0 12 4 16 11 10 6 -5 10 2 10 20 0 15 -3 26 -6 24 -4 -2 -9 3 -12
11 -4 10 -1 12 11 8 14 -6 15 -4 4 9 -10 13 -10 17 0 21 8 3 6 6 -5 6 -10 1
-15 6 -12 11 4 6 9 8 13 6 10 -6 7 88 -3 104 -6 10 -3 12 13 8 14 -4 20 -2 16
4 -4 6 2 8 16 3 17 -6 21 -4 14 6 -5 9 3 7 20 -5 16 -10 25 -12 21 -6z m-579
-28 c-3 -3 -1 -11 5 -18 7 -8 7 -14 -1 -19 -6 -3 -7 -12 -4 -18 4 -7 3 -8 -2
-4 -11 11 -13 78 -2 70 5 -3 7 -8 4 -11z m1424 -184 c0 -6 -6 -5 -15 2 -8 7
-15 14 -15 16 0 2 7 1 15 -2 8 -4 15 -11 15 -16z m-1420 -14 c0 -8 -19 -13
-24 -6 -3 5 1 9 9 9 8 0 15 -2 15 -3z m1985 -14 c3 -5 1 -10 -4 -10 -6 0 -11
5 -11 10 0 6 2 10 4 10 3 0 8 -4 11 -10z m-1989 -28 c-3 -3 -1 -11 5 -18 7 -8
7 -14 -1 -19 -6 -3 -7 -12 -4 -18 4 -7 3 -8 -2 -4 -11 11 -13 78 -2 70 5 -3 7
-8 4 -11z m1559 -192 c3 -5 1 -10 -4 -10 -6 0 -11 5 -11 10 0 6 2 10 4 10 3 0
8 -4 11 -10z m-1557 -29 c-7 -9 -13 -18 -15 -20 -1 -2 -1 5 0 16 0 11 7 20 14
20 10 0 10 -4 1 -16z m0 -80 c-7 -9 -13 -18 -15 -20 -1 -2 -1 5 0 16 0 11 7
20 14 20 10 0 10 -4 1 -16z m0 -80 c-7 -9 -13 -18 -15 -20 -1 -2 -1 5 0 16 0
11 7 20 14 20 10 0 10 -4 1 -16z m4 -75 c-10 -13 -9 -27 1 -43 4 -6 3 -14 -3
-18 -6 -4 -7 -12 -4 -18 4 -7 3 -8 -2 -4 -14 13 -12 94 3 94 7 0 9 -5 5 -11z
m2083 -6 c3 -6 -1 -7 -9 -4 -18 7 -21 14 -7 14 6 0 13 -4 16 -10z m-502 -205
c-3 -9 -8 -14 -10 -11 -3 3 -2 9 2 15 9 16 15 13 8 -4z m-1583 -11 c0 -8 -19
-13 -24 -6 -3 5 1 9 9 9 8 0 15 -2 15 -3z m-4 -42 c-3 -3 -1 -11 5 -18 7 -8 7
-14 -1 -19 -6 -3 -7 -12 -4 -18 4 -7 3 -8 -2 -4 -11 11 -13 78 -2 70 5 -3 7
-8 4 -11z m4 -198 c0 -8 -19 -13 -24 -6 -3 5 1 9 9 9 8 0 15 -2 15 -3z m-4
-42 c-3 -3 -1 -11 5 -18 7 -8 7 -14 -1 -19 -6 -3 -7 -12 -4 -18 4 -7 3 -8 -2
-4 -11 11 -13 78 -2 70 5 -3 7 -8 4 -11z m2004 8 c0 -5 -5 -10 -11 -10 -5 0
-7 5 -4 10 3 6 8 10 11 10 2 0 4 -4 4 -10z m-75 -170 c-3 -5 -12 -10 -18 -10
-7 0 -6 4 3 10 19 12 23 12 15 0z m-1927 -59 c-7 -9 -13 -18 -15 -20 -1 -2 -1
5 0 16 0 11 7 20 14 20 10 0 10 -4 1 -16z m0 -80 c-7 -9 -13 -18 -15 -20 -1
-2 -1 5 0 16 0 11 7 20 14 20 10 0 10 -4 1 -16z m779 -23 c-3 -8 -6 -5 -6 6
-1 11 2 17 5 13 3 -3 4 -12 1 -19z m67 4 c3 -5 -1 -9 -9 -9 -8 0 -12 4 -9 9 3
4 7 8 9 8 2 0 6 -4 9 -8z m959 -7 c-3 -9 -8 -14 -10 -11 -3 3 -2 9 2 15 9 16
15 13 8 -4z m-1805 -54 c-7 -9 -13 -18 -15 -20 -1 -2 -1 5 0 16 0 11 7 20 14
20 10 0 10 -4 1 -16z m4 -75 c-10 -13 -9 -27 1 -43 4 -6 3 -14 -3 -18 -6 -4
-7 -12 -4 -18 4 -7 3 -8 -2 -4 -14 13 -12 94 3 94 7 0 9 -5 5 -11z m1 -115
c-5 -3 -9 -18 -8 -33 2 -23 -1 -26 -12 -17 -8 7 -10 16 -4 23 4 6 7 19 6 28
-2 11 2 15 12 11 8 -3 11 -9 6 -12z"/>
<path d="M1266 3608 c3 -4 9 -8 15 -8 5 0 9 4 9 8 0 5 -7 9 -15 9 -8 0 -12 -4
-9 -9z"/>
<path d="M1740 3340 c0 -5 5 -10 11 -10 5 0 7 5 4 10 -3 6 -8 10 -11 10 -2 0
-4 -4 -4 -10z"/>
<path d="M1850 3040 c0 -5 5 -10 11 -10 5 0 7 5 4 10 -3 6 -8 10 -11 10 -2 0
-4 -4 -4 -10z"/>
<path d="M1860 2994 c0 -8 5 -12 10 -9 6 4 8 11 5 16 -9 14 -15 11 -15 -7z"/>
<path d="M1855 2821 c-3 -5 -2 -12 3 -15 5 -3 9 1 9 9 0 17 -3 19 -12 6z"/>
<path d="M1860 2770 c-8 -5 -12 -12 -9 -15 4 -3 12 1 19 10 14 17 11 19 -10 5z"/>
<path d="M768 2103 c7 -3 16 -2 19 1 4 3 -2 6 -13 5 -11 0 -14 -3 -6 -6z"/>
<path d="M730 4009 c0 -5 5 -7 10 -4 6 3 10 8 10 11 0 2 -4 4 -10 4 -5 0 -10
-5 -10 -11z"/>
<path d="M1315 4010 c-4 -6 -11 -8 -16 -5 -5 4 -6 -2 -2 -11 4 -12 8 -14 11
-6 3 10 7 10 20 0 15 -11 15 -11 5 3 -7 9 -10 19 -6 22 3 4 4 7 0 7 -3 0 -9
-5 -12 -10z"/>
<path d="M2766 4008 c3 -5 10 -5 16 -2 7 4 8 2 4 -5 -4 -6 -11 -9 -16 -6 -13
8 -37 -5 -37 -20 0 -8 4 -12 9 -9 13 8 10 -10 -4 -25 -11 -11 -8 -12 12 -7 19
5 21 5 9 -3 -18 -11 -15 -61 4 -61 6 0 7 -3 4 -6 -4 -4 -12 -2 -20 4 -10 8
-13 6 -13 -8 0 -10 4 -16 8 -14 13 8 9 -11 -4 -25 -11 -11 -10 -13 4 -8 10 3
20 1 24 -5 5 -7 2 -8 -6 -3 -9 6 -12 -1 -8 -28 3 -24 0 -33 -7 -27 -6 5 -11 0
-11 -16 -1 -13 2 -24 8 -24 5 0 6 4 3 10 -3 6 1 7 10 3 9 -3 13 -9 8 -12 -21
-16 -29 -53 -27 -131 3 -121 2 -117 20 -94 15 18 15 18 5 -3 -7 -14 -8 -24 -1
-28 5 -3 10 -11 10 -16 0 -6 -7 -3 -16 5 -8 9 -21 16 -27 16 -7 0 -4 -5 6 -11
15 -9 16 -13 5 -27 -11 -13 -11 -15 4 -9 10 3 20 1 24 -5 5 -7 2 -8 -6 -3 -10
6 -12 0 -8 -24 3 -18 0 -35 -5 -38 -6 -4 -7 -1 -2 7 5 8 4 11 -3 7 -5 -4 -8
-16 -5 -27 5 -19 6 -20 20 -3 13 16 13 16 4 -4 -7 -14 -8 -24 -1 -28 5 -3 10
-11 10 -17 0 -6 -11 1 -25 16 -14 15 -25 23 -25 18 0 -5 7 -15 15 -22 12 -10
13 -16 3 -28 -11 -13 -10 -15 4 -9 10 3 20 1 24 -5 4 -7 3 -8 -4 -4 -8 5 -12
-1 -12 -17 0 -13 -3 -27 -7 -31 -11 -10 -11 -206 0 -206 4 0 6 4 3 8 -3 5 1 9
8 9 10 0 9 -9 -6 -35 -17 -31 -17 -34 -2 -28 15 6 15 5 0 -19 -12 -19 -14 -30
-7 -39 7 -9 7 -16 -2 -26 -10 -10 -9 -12 5 -7 10 3 20 1 24 -5 5 -7 2 -8 -6
-3 -9 6 -12 -1 -8 -28 3 -24 0 -33 -7 -27 -6 5 -11 0 -11 -16 -1 -13 2 -24 8
-24 5 0 6 4 3 10 -3 6 1 7 10 3 9 -3 13 -9 8 -12 -5 -3 -13 -15 -18 -26 -11
-26 -13 -375 -2 -375 4 0 6 4 3 8 -3 5 1 9 8 9 10 0 9 -9 -6 -35 -17 -31 -17
-34 -2 -28 15 6 15 5 0 -19 -12 -19 -14 -30 -7 -39 7 -9 7 -16 -2 -26 -10 -10
-9 -12 5 -7 10 3 20 1 24 -5 5 -7 2 -8 -6 -3 -9 6 -12 -1 -8 -28 3 -24 0 -33
-7 -27 -6 5 -11 0 -11 -16 -1 -13 2 -24 8 -24 5 0 6 4 3 10 -3 6 1 7 10 3 9
-3 13 -9 8 -12 -21 -16 -29 -53 -27 -131 3 -121 2 -117 20 -94 15 18 15 18 5
-3 -7 -14 -8 -24 -1 -28 5 -3 10 -11 10 -16 0 -6 -7 -3 -16 5 -8 9 -21 16 -27
16 -7 0 -4 -5 6 -11 15 -9 16 -13 5 -27 -11 -13 -11 -15 4 -9 10 3 20 1 24 -5
4 -7 3 -8 -4 -4 -8 5 -12 -1 -12 -18 0 -14 -4 -28 -10 -31 -5 -3 -10 -11 -10
-18 0 -8 3 -8 12 1 7 7 17 12 23 12 6 0 5 -3 -2 -8 -19 -12 -19 -34 0 -37 10
-2 14 1 11 7 -5 7 -2 8 7 3 19 -13 89 -14 89 -2 0 6 10 2 22 -9 12 -10 18 -13
14 -6 -6 9 4 12 41 10 26 -1 54 1 62 6 10 6 12 5 7 -2 -4 -7 -1 -12 9 -12 10
0 13 5 9 13 -5 7 0 6 11 -3 15 -12 19 -12 23 -2 3 10 9 9 25 -5 11 -10 17 -12
12 -4 -6 11 -3 13 18 7 16 -4 27 -1 30 7 4 9 6 9 6 0 1 -7 6 -13 12 -13 5 0 7
5 3 12 -5 7 -3 8 7 2 22 -13 49 -15 49 -2 0 6 10 3 22 -8 12 -10 18 -13 13 -5
-6 11 -3 13 18 7 16 -4 27 -1 30 7 4 9 6 9 6 0 1 -7 6 -13 12 -13 5 0 7 5 3
12 -5 7 -3 8 7 3 7 -5 23 -9 34 -9 11 0 27 4 34 9 10 5 12 4 7 -3 -4 -7 -1
-12 9 -12 10 0 13 5 9 12 -5 7 -3 8 6 3 20 -12 70 -14 70 -2 0 5 10 2 22 -9
12 -10 18 -13 14 -6 -6 9 4 12 41 10 26 -1 54 1 62 6 10 6 12 5 7 -2 -4 -7 -1
-12 9 -12 10 0 13 5 9 13 -5 7 0 6 11 -3 15 -12 19 -12 23 -2 3 10 9 9 25 -5
11 -10 17 -12 12 -4 -6 11 -3 13 18 7 16 -4 27 -1 30 7 4 9 6 9 6 0 1 -7 6
-13 12 -13 5 0 7 5 3 12 -5 7 -3 8 7 3 17 -11 51 -11 68 0 10 5 12 4 7 -3 -5
-8 8 -11 43 -10 27 1 47 6 44 11 -3 5 3 4 14 -1 12 -7 25 -7 36 -1 13 8 17 6
17 -7 0 -14 2 -14 18 3 9 10 14 14 10 8 -4 -6 3 -10 18 -10 15 0 22 5 19 13
-3 8 5 6 23 -5 l27 -17 -20 24 -20 24 34 -24 c19 -13 31 -19 27 -12 -4 6 -2
20 4 29 11 16 11 16 6 1 -3 -10 -1 -20 4 -23 6 -4 10 1 10 11 0 13 3 14 15 4
8 -7 12 -17 8 -24 -3 -6 0 -5 8 2 12 11 12 14 -1 22 -11 7 -11 10 -2 10 7 0
10 5 6 12 -4 7 -3 8 5 4 25 -16 61 -14 62 3 0 12 2 11 9 -4 5 -11 9 -15 9 -10
1 6 10 16 22 23 19 12 19 12 8 -10 -11 -20 -10 -21 3 -11 8 7 17 10 20 8 3 -3
4 6 3 20 -2 14 1 23 6 19 5 -3 7 -9 5 -13 -3 -4 5 -7 17 -8 12 0 16 1 10 4 -7
3 -13 9 -13 14 0 6 4 7 10 4 5 -3 21 2 35 11 14 9 32 13 41 10 14 -5 15 -4 5
8 -10 12 -8 13 10 9 17 -5 20 -3 14 8 -7 11 -5 11 10 -1 17 -14 17 -13 11 10
-4 14 -4 21 1 15 4 -5 16 -11 26 -11 15 -2 16 1 5 15 -7 9 -9 13 -4 9 5 -4 16
1 25 10 9 10 12 12 7 5 -5 -8 -4 -13 2 -13 6 0 13 9 17 20 3 11 12 19 18 17 7
-1 11 4 9 12 -2 9 3 11 14 7 14 -5 15 -4 5 8 -9 11 -9 16 0 22 7 4 9 3 6 -3
-4 -6 -1 -13 7 -16 9 -4 12 2 10 18 -1 13 4 26 12 29 10 4 13 1 9 -7 -4 -6 2
-1 13 13 11 13 19 27 16 31 -2 4 2 12 10 18 11 9 15 9 19 -1 4 -9 6 -9 6 -1 1
16 -16 26 -24 13 -3 -5 -11 -10 -18 -10 -6 0 2 10 19 23 29 22 48 65 22 52 -7
-3 -4 1 6 9 11 9 17 16 13 16 -5 0 -2 6 5 14 7 8 15 13 18 11 3 -2 5 10 6 26
1 16 -3 29 -7 29 -5 0 -9 5 -9 11 0 6 7 9 14 6 16 -7 12 16 -8 42 -8 11 -8 13
1 8 6 -4 14 -3 18 3 3 5 -2 10 -11 10 -14 0 -13 4 7 22 15 13 18 19 7 15 -19
-7 -30 14 -17 34 12 19 11 32 -2 24 -6 -4 -5 2 2 13 10 16 10 24 1 34 -9 11
-9 17 0 26 9 9 9 12 -1 12 -11 0 -11 3 0 17 8 10 9 14 2 10 -7 -5 -12 -1 -12
10 -1 35 -4 53 -9 48 -5 -4 -18 8 -42 40 -15 20 -15 20 9 0 l23 -20 -13 28
c-13 29 -20 32 -35 17 -6 -6 -10 -2 -11 12 -2 18 0 19 7 8 7 -11 9 -10 7 7 0
12 -4 20 -8 17 -12 -7 -39 7 -33 17 3 5 0 9 -5 9 -6 0 -11 5 -11 11 0 5 6 7
13 3 8 -5 7 -2 -2 9 -11 14 -17 15 -30 5 -9 -7 -13 -8 -9 -4 4 5 0 15 -10 23
-9 8 -11 11 -3 7 9 -4 12 -3 7 4 -4 6 -14 8 -23 5 -11 -4 -14 -3 -9 5 4 7 1
12 -9 12 -10 0 -13 5 -9 12 4 6 3 8 -3 5 -6 -4 -14 0 -17 9 -5 13 -9 14 -21 4
-10 -9 -15 -9 -15 -1 0 6 -5 11 -11 11 -5 0 -7 -6 -3 -12 5 -9 3 -9 -9 1 -9 7
-14 17 -11 22 5 8 -17 14 -38 10 -5 0 -8 5 -8 11 0 9 -4 8 -10 -2 -8 -12 -10
-12 -10 5 0 15 -2 17 -9 6 -6 -9 -11 -10 -15 -2 -4 6 -4 15 -1 21 3 6 -1 7 -9
4 -9 -3 -13 -10 -10 -15 9 -16 -6 -10 -29 11 -20 20 -22 20 -34 4 -8 -11 -13
-13 -13 -5 0 7 -4 10 -8 7 -4 -2 -9 10 -9 27 -1 18 1 26 4 19 4 -10 8 -10 21
0 12 10 14 10 8 1 -5 -9 -2 -11 8 -7 9 3 13 11 10 16 -4 6 2 5 14 -1 12 -7 23
-7 26 -2 4 5 0 12 -6 14 -7 3 -1 6 14 6 15 1 30 6 33 12 4 6 14 8 22 5 11 -4
13 -2 9 9 -3 9 0 15 10 15 9 0 12 -5 8 -12 -4 -7 -3 -8 5 -4 9 6 9 11 -1 24
-11 13 -10 15 5 9 11 -4 17 -2 17 8 0 8 8 12 20 10 18 -3 19 -1 9 18 -7 12 -8
19 -4 15 12 -11 36 12 28 26 -4 6 1 5 11 -3 9 -8 16 -10 15 -5 -3 19 1 34 12
34 5 0 7 -5 3 -12 -4 -7 -3 -8 5 -4 9 6 9 11 0 22 -11 13 -6 18 14 15 5 -1 6
3 3 8 -4 5 -2 11 3 13 4 1 12 14 16 27 6 18 4 22 -6 15 -11 -6 -12 -5 -2 8 7
8 10 17 7 20 -3 3 1 5 8 5 7 -1 14 0 15 3 1 3 6 17 11 31 6 15 7 32 2 40 -6 8
-4 16 3 21 9 6 9 8 0 8 -7 0 -13 5 -13 11 0 6 7 8 18 4 13 -5 14 -3 5 6 -8 8
-9 19 -2 36 8 21 7 24 -5 20 -16 -6 -12 16 7 41 7 9 6 11 -5 7 -9 -4 -15 0
-15 9 0 8 5 12 10 9 5 -3 7 0 5 8 -3 8 -10 13 -15 12 -5 -1 -10 4 -10 12 0 7
6 11 13 8 9 -3 11 2 7 16 -3 12 -10 21 -17 21 -6 0 -4 5 4 10 13 8 13 10 -2
10 -9 0 -20 5 -24 12 -5 8 -2 9 9 5 9 -3 19 -2 22 4 4 5 1 8 -5 7 -6 -2 -19 8
-28 22 -9 13 -11 21 -4 16 6 -4 12 -2 12 3 0 6 -5 11 -11 11 -5 0 -8 3 -6 8 3
4 -1 13 -9 20 -10 10 -14 10 -14 1 0 -7 -3 -9 -6 -6 -4 4 -2 13 5 20 9 11 7
17 -6 28 -17 13 -17 13 -3 -6 14 -19 14 -19 -2 -6 -10 7 -18 20 -18 27 0 8 -5
14 -11 14 -5 0 -8 4 -4 9 3 5 0 13 -6 17 -8 4 -9 3 -5 -4 4 -7 2 -12 -4 -12
-8 0 -10 9 -5 28 6 26 6 26 -9 7 -14 -18 -15 -18 -16 -2 0 9 -5 17 -11 17 -5
0 -7 6 -3 13 6 9 5 9 -8 -1 -13 -10 -18 -9 -29 5 -9 11 -10 14 -1 9 6 -4 12
-2 12 3 0 6 -7 11 -16 11 -8 0 -13 4 -10 8 2 4 -10 9 -27 10 -30 3 -50 19 -41
33 5 9 -17 6 -32 -4 -7 -4 -17 -1 -23 7 -7 8 -23 17 -37 20 -16 4 -22 11 -17
19 5 9 4 9 -8 0 -12 -10 -21 -9 -42 2 -15 8 -35 11 -44 8 -12 -5 -14 -3 -8 8
6 11 5 12 -6 2 -17 -17 -29 -16 -29 1 0 8 -4 17 -9 20 -5 4 -7 -4 -4 -16 4
-22 4 -22 -12 2 -9 14 -14 17 -11 8 3 -10 0 -20 -6 -24 -6 -4 -9 -3 -5 2 3 5
-1 18 -9 29 -8 10 -14 13 -14 6 0 -7 -4 -10 -9 -6 -5 3 -12 -3 -14 -12 -4 -17
-5 -17 -6 0 0 9 -4 17 -8 18 -61 5 -164 2 -167 -6 -3 -7 -5 -7 -5 0 -1 10 -90
11 -116 1 -8 -3 -17 -1 -20 4 -4 6 -11 10 -16 10 -6 0 -7 -6 -3 -12 5 -9 2 -9
-9 1 -13 10 -17 10 -17 1 0 -10 -3 -10 -15 0 -12 10 -15 10 -15 -1 0 -11 -2
-11 -10 1 -8 12 -11 13 -19 1 -6 -10 -10 -10 -16 -1 -6 9 -10 9 -16 -1 -6 -10
-9 -11 -9 -1 0 6 -5 12 -11 12 -5 0 -7 -5 -3 -11 5 -8 1 -8 -14 0 -15 8 -22 8
-25 -2 -3 -6 -6 -7 -6 -2 -1 10 -84 11 -100 0 -5 -3 -12 -1 -16 5 -3 5 -11 10
-16 10 -6 0 -7 -6 -3 -12 5 -9 2 -9 -9 1 -13 10 -17 10 -17 1 0 -10 -3 -10
-15 0 -12 10 -15 10 -15 -1 0 -11 -2 -11 -10 1 -8 12 -11 13 -19 1 -6 -10 -10
-10 -16 -1 -6 9 -10 9 -16 -1 -6 -10 -9 -11 -9 -1 0 6 -5 12 -11 12 -5 0 -7
-5 -3 -11 5 -8 1 -8 -14 0 -15 8 -22 8 -25 -2 -3 -6 -6 -7 -6 -2 -1 10 -84 11
-100 0 -5 -3 -12 -1 -16 5 -3 5 -11 10 -16 10 -6 0 -7 -6 -3 -12 5 -9 2 -9 -9
1 -13 10 -17 10 -17 1 0 -10 -3 -10 -15 0 -12 10 -15 10 -15 -1 0 -11 -2 -11
-10 1 -8 12 -11 13 -19 1 -6 -10 -10 -10 -16 -1 -6 9 -10 9 -16 -1 -6 -10 -9
-11 -9 -1 0 6 -5 12 -11 12 -5 0 -7 -5 -3 -11 4 -8 0 -8 -15 0 -16 9 -21 9
-21 -1 0 -8 -3 -9 -8 -3 -8 12 -133 14 -126 3z m1261 -13 c0 -8 -4 -12 -9 -9
-5 3 -6 10 -3 15 9 13 12 11 12 -6z m63 -5 c0 -5 -5 -10 -11 -10 -5 0 -7 5 -4
10 3 6 8 10 11 10 2 0 4 -4 4 -10z m-728 -324 c6 4 8 -2 4 -17 -7 -24 -7 -24
8 1 9 14 15 19 16 11 0 -11 3 -11 16 0 15 12 16 11 9 -10 -6 -21 -5 -22 8 -10
8 8 13 17 10 22 -2 4 1 7 6 7 10 0 15 -13 13 -31 -1 -3 6 -6 13 -6 12 0 12 3
3 15 -9 11 -9 13 3 12 28 -4 40 0 33 12 -4 7 -3 8 5 4 9 -6 9 -11 0 -22 -6 -8
-9 -17 -5 -21 3 -3 6 -1 6 6 0 7 7 11 14 8 9 -4 13 -1 10 6 -2 7 4 13 16 14
11 1 20 -3 20 -8 0 -6 -6 -7 -12 -3 -7 4 -10 3 -5 -1 12 -13 48 -14 38 -1 -6
8 2 11 25 12 31 1 39 -6 35 -29 -1 -5 3 -6 9 -2 6 4 9 12 8 19 -2 6 2 12 7 13
6 1 9 -8 8 -20 -2 -21 -2 -20 12 3 8 14 14 19 15 11 0 -11 3 -11 17 0 11 10
14 10 9 2 -4 -8 -1 -13 9 -13 9 0 13 5 10 10 -3 6 -1 10 4 10 10 0 15 -13 13
-31 -1 -3 6 -6 13 -6 12 0 12 3 2 16 -10 12 -9 14 5 9 9 -4 19 -4 23 0 3 4 24
7 45 7 30 0 37 -3 35 -16 -4 -17 29 -20 54 -5 10 6 12 5 7 -2 -7 -12 3 -15 42
-12 12 1 22 -4 22 -12 1 -8 7 -6 17 7 13 16 15 17 10 3 -4 -12 -1 -18 8 -18 8
0 14 -6 13 -12 -2 -8 5 -12 16 -10 10 2 15 -1 12 -6 -3 -6 2 -8 14 -5 12 3 20
0 20 -6 0 -7 -6 -9 -12 -6 -7 4 -5 0 4 -8 10 -8 14 -18 10 -23 -4 -4 2 -2 12
6 13 10 17 10 12 3 -4 -8 -2 -13 4 -13 6 0 9 -4 5 -9 -3 -5 2 -16 10 -24 16
-16 21 -32 7 -23 -4 2 -8 -6 -8 -19 0 -13 4 -21 10 -18 5 4 7 -1 3 -10 -4 -12
-2 -14 11 -10 14 6 15 4 5 -8 -8 -9 -9 -20 -3 -29 15 -24 11 -36 -5 -14 -13
18 -14 18 -8 -5 4 -18 3 -22 -6 -17 -10 6 -9 3 0 -12 7 -12 18 -18 24 -14 5 3
4 -1 -2 -10 -7 -8 -9 -19 -5 -23 4 -5 2 -5 -4 -2 -7 4 -15 0 -18 -9 -5 -12 -2
-15 10 -10 14 5 15 4 5 -8 -7 -8 -9 -21 -5 -28 5 -9 2 -8 -12 2 -10 8 -16 11
-12 6 4 -5 -3 -17 -15 -27 -12 -10 -16 -18 -9 -19 6 0 12 5 12 10 0 6 5 10 10
10 6 0 5 -8 -2 -19 -7 -11 -16 -17 -20 -15 -4 3 -8 -2 -8 -11 0 -9 -4 -13 -10
-10 -5 3 -10 1 -10 -5 0 -6 -5 -8 -12 -4 -7 5 -9 2 -5 -9 4 -11 1 -15 -14 -12
-10 2 -19 -1 -19 -7 0 -5 -7 -8 -15 -4 -8 3 -15 1 -15 -4 0 -6 5 -10 12 -10 6
0 8 -3 5 -7 -4 -3 -16 2 -27 12 -19 17 -19 17 -15 -3 3 -18 1 -20 -20 -12 -19
7 -23 6 -19 -4 4 -10 -3 -13 -25 -11 -17 1 -31 -1 -31 -6 0 -5 -5 -9 -10 -9
-7 0 -7 8 1 23 11 21 11 21 -7 6 -10 -9 -25 -14 -33 -11 -8 2 -11 0 -8 -5 3
-5 0 -10 -8 -10 -8 0 -12 4 -10 8 7 11 -69 5 -77 -6 -5 -6 -8 -5 -8 3 0 9 -5
10 -17 3 -12 -6 -21 -5 -31 7 -7 10 -11 11 -7 5 3 -7 0 -13 -7 -13 -8 0 -20 6
-27 13 -9 7 -11 7 -8 1 5 -8 -5 -13 -27 -16 -19 -2 -33 -1 -31 2 2 3 -16 6
-41 6 -24 0 -44 -4 -44 -9 0 -4 -5 -5 -12 -1 -7 4 -26 9 -43 11 -22 2 -26 0
-15 -7 9 -6 10 -10 3 -10 -6 0 -15 5 -18 10 -4 7 -12 7 -25 0 -13 -7 -21 -7
-26 1 -4 8 -9 7 -15 -2 -7 -11 -9 -9 -9 6 0 15 -2 17 -9 6 -5 -7 -14 -10 -20
-7 -6 4 -11 2 -11 -5 0 -8 -5 -7 -17 3 -10 9 -23 13 -30 11 -6 -2 -15 2 -19 9
-12 18 -14 39 -4 33 5 -3 8 4 7 15 -1 11 -6 20 -12 21 -5 0 -1 4 10 8 19 8 19
8 -3 15 -22 7 -22 8 -5 22 10 7 13 14 6 14 -13 0 -12 25 2 37 4 4 5 3 1 -4 -3
-6 -2 -14 3 -17 5 -4 8 1 7 10 -1 8 -9 20 -17 25 -8 5 -9 9 -3 9 14 0 13 52
-1 62 -6 5 -5 8 3 8 6 0 12 5 12 11 0 5 -6 7 -12 3 -9 -5 -9 -2 1 9 12 16 8
22 -12 18 -5 -1 -5 3 -2 9 4 6 14 9 24 6 12 -5 11 -2 -3 9 -12 9 -15 15 -7 15
10 0 11 3 2 13 -8 10 -7 17 1 25 9 9 9 12 -2 12 -9 0 -8 5 6 16 10 8 13 13 6
9 -9 -5 -11 1 -8 19 3 15 1 24 -3 22 -4 -3 -7 5 -6 17 2 12 7 21 13 20 6 -2 9
4 6 12 -4 8 -14 15 -23 16 -12 0 -12 2 4 9 11 5 16 9 12 9 -4 1 -4 9 1 18 6
10 23 17 46 18 33 1 41 -5 37 -28 -1 -5 3 -6 9 -2 6 4 8 16 5 28 -2 12 -2 16
1 9 3 -6 10 -9 16 -6z m-606 -14 c-3 -3 -1 -11 6 -19 8 -11 7 -12 -5 -7 -9 3
-15 14 -14 24 1 10 5 16 10 13 4 -3 6 -8 3 -11z m1178 0 c3 -5 -1 -9 -9 -9 -8
0 -15 4 -15 9 0 4 4 8 9 8 6 0 12 -4 15 -8z m-1178 -80 c-3 -3 -1 -11 6 -19 8
-11 7 -12 -5 -7 -9 3 -15 14 -14 24 1 10 5 16 10 13 4 -3 6 -8 3 -11z m-2 -62
c-6 -6 -10 -3 -10 10 0 13 4 16 10 10 7 -7 7 -13 0 -20z m1923 -239 c-1 -15
-4 -17 -14 -9 -15 12 -17 22 -3 13 6 -3 10 -1 10 4 0 6 2 11 4 11 3 0 4 -9 3
-19z m-1921 -99 c-3 -3 -1 -11 6 -19 8 -11 7 -12 -5 -7 -9 3 -15 14 -14 24 1
10 5 16 10 13 4 -3 6 -8 3 -11z m0 -80 c-3 -3 -1 -11 6 -19 8 -11 7 -12 -5 -7
-9 3 -15 14 -14 24 1 10 5 16 10 13 4 -3 6 -8 3 -11z m-1 -52 c-3 -4 0 -11 5
-13 6 -3 5 -4 -1 -3 -7 1 -13 10 -15 19 -1 9 2 15 7 11 5 -3 7 -9 4 -14z m15
-162 c0 -5 -7 -3 -15 6 -8 8 -15 18 -15 22 0 3 7 1 15 -6 8 -7 15 -17 15 -22z
m526 -167 c-5 -13 -4 -13 8 2 16 21 26 22 26 3 0 -20 17 -29 26 -15 4 8 3 9
-4 5 -7 -4 -12 -1 -12 7 0 7 7 14 15 14 8 0 15 -4 15 -8 0 -4 7 -10 16 -13 14
-5 15 -4 4 9 -11 13 -10 14 5 9 14 -6 16 -4 10 6 -5 9 -4 11 4 6 6 -4 9 -12 6
-17 -4 -5 -1 -9 4 -9 6 0 11 5 11 10 0 6 5 10 11 10 5 0 8 -4 4 -9 -3 -5 0
-13 6 -17 7 -4 9 -3 5 4 -3 6 -2 13 4 17 5 3 10 1 10 -4 0 -6 5 -11 11 -11 6
0 8 8 5 18 -4 10 2 7 14 -8 11 -14 18 -18 15 -9 -4 10 0 16 9 16 8 0 13 -5 10
-11 -3 -6 2 -2 10 8 11 13 16 15 16 6 0 -7 3 -10 7 -7 3 4 13 1 21 -6 13 -9
14 -9 8 1 -4 6 -2 12 3 12 10 0 15 -14 12 -33 -3 -16 20 5 29 27 8 18 9 19 9
2 1 -16 3 -17 18 -5 11 10 14 10 9 2 -4 -7 -2 -13 3 -13 6 0 11 6 12 13 0 10
2 10 6 0 2 -7 9 -13 14 -13 4 0 7 6 5 13 -1 6 -1 9 1 4 3 -4 10 -4 16 0 7 4 8
0 4 -13 -7 -18 -6 -18 7 -1 14 18 32 24 21 7 -3 -5 -1 -10 4 -10 6 0 11 5 11
11 0 5 5 7 10 4 6 -4 8 -10 5 -15 -3 -5 -1 -11 4 -15 6 -3 8 3 6 15 -2 11 1
22 6 26 5 3 8 0 7 -7 -2 -6 3 -14 11 -17 8 -3 11 0 7 7 -4 6 -2 11 3 11 6 0
11 -6 11 -12 0 -9 4 -8 10 2 7 12 10 12 10 1 0 -9 6 -11 18 -6 24 10 83 14 77
5 -2 -4 -16 -6 -30 -5 -14 2 -23 0 -20 -5 8 -13 67 -1 81 17 13 17 14 17 8 1
-6 -18 4 -23 35 -18 8 1 12 -4 8 -13 -4 -11 3 -13 36 -11 25 2 44 -1 49 -9 6
-9 8 -9 8 1 0 10 3 10 14 0 8 -7 11 -17 8 -23 -3 -5 3 -3 13 5 17 14 18 13 12
-2 -7 -19 8 -34 18 -18 3 5 12 10 18 10 7 0 6 -4 -3 -10 -13 -9 -13 -10 0 -11
8 -1 19 -1 24 0 5 1 3 -6 -5 -15 -13 -16 -12 -16 11 -4 24 13 24 12 10 -5 -14
-17 -13 -17 10 -12 14 4 19 4 13 1 -18 -8 -16 -24 1 -24 8 0 18 -5 22 -12 4
-7 3 -8 -4 -4 -7 4 -12 3 -12 -2 0 -5 10 -14 23 -21 12 -6 15 -10 6 -7 -11 3
-15 -2 -13 -17 1 -12 3 -24 4 -27 1 -3 2 -9 1 -13 -1 -5 3 -6 9 -2 8 5 8 11 0
20 -8 9 -7 14 3 18 11 4 13 -2 11 -24 -3 -22 0 -28 9 -23 6 4 9 4 5 -1 -4 -4
-2 -15 5 -24 10 -13 7 -13 -15 2 -21 13 -29 14 -34 4 -4 -6 -4 -9 1 -5 4 4 14
3 22 -4 11 -9 11 -14 -4 -32 -10 -12 -11 -15 -3 -8 20 17 35 15 20 -3 -7 -8
-8 -15 -3 -15 5 0 10 -7 10 -15 0 -11 -4 -12 -14 -3 -7 6 -16 8 -20 4 -3 -3
-2 -6 4 -6 6 0 14 -7 17 -16 4 -12 2 -15 -9 -11 -8 4 -17 1 -21 -5 -5 -7 -2
-8 6 -3 10 6 12 4 6 -10 -5 -13 -3 -16 7 -9 7 5 4 1 -6 -8 -18 -17 -16 -22 8
-19 6 1 2 -5 -9 -13 -10 -9 -15 -20 -10 -27 5 -8 3 -10 -6 -4 -10 6 -12 4 -7
-8 4 -11 2 -14 -7 -11 -16 6 -29 -22 -19 -39 4 -7 0 -7 -9 1 -13 10 -18 10
-24 1 -5 -8 -3 -10 7 -5 8 4 6 1 -3 -7 -10 -8 -14 -18 -10 -23 4 -4 0 -3 -9 4
-14 11 -17 10 -15 -5 1 -13 -6 -17 -31 -16 -18 0 -30 -4 -27 -9 3 -5 13 -7 21
-4 8 3 11 1 8 -5 -4 -5 -16 -7 -27 -3 -15 4 -19 3 -14 -7 4 -8 0 -5 -8 5 -14
17 -16 17 -16 3 0 -10 -5 -14 -15 -11 -8 4 -15 1 -15 -6 0 -7 -6 -6 -16 4 -17
17 -25 20 -22 9 0 -5 -2 -16 -7 -27 -8 -17 -9 -17 -22 5 -11 20 -13 21 -11 5
2 -15 -4 -20 -24 -21 -16 -1 -28 2 -28 8 0 6 -5 6 -12 0 -19 -15 -50 -12 -44
3 3 8 1 16 -5 19 -5 4 -9 3 -8 -2 5 -28 -2 -36 -16 -17 -12 15 -14 16 -9 2 4
-13 1 -16 -15 -13 -11 2 -23 -1 -26 -6 -4 -5 -11 -7 -16 -3 -5 3 -6 11 -2 17
4 7 -1 5 -12 -3 -17 -14 -17 -13 -11 10 l7 25 -15 -25 c-9 -14 -15 -19 -16
-12 0 6 -5 12 -11 12 -5 0 -8 -4 -4 -9 3 -6 -3 -8 -15 -6 -11 2 -22 -1 -25 -6
-4 -5 -11 -7 -16 -3 -5 3 -7 9 -4 14 3 5 0 12 -6 16 -7 4 -9 3 -5 -4 3 -6 2
-13 -4 -17 -5 -3 -10 0 -10 7 0 9 -3 9 -10 -2 -6 -10 -10 -11 -10 -2 0 6 -5
12 -11 12 -5 0 -8 -4 -4 -9 3 -6 -3 -8 -15 -6 -11 2 -22 -1 -25 -6 -4 -5 -11
-7 -16 -3 -5 3 -7 9 -4 14 3 5 0 12 -6 16 -7 4 -9 3 -5 -4 3 -6 2 -13 -4 -17
-5 -3 -10 -1 -10 5 0 6 -5 8 -12 4 -7 -4 -22 -8 -35 -9 -18 0 -22 3 -17 19 5
16 4 17 -9 5 -8 -8 -12 -18 -9 -24 3 -5 -3 -3 -13 5 -10 8 -16 10 -12 3 6 -9
-2 -11 -28 -8 -27 4 -34 2 -29 -7 5 -10 4 -10 -6 -1 -11 10 -17 10 -29 0 -12
-9 -13 -9 -7 1 4 7 2 12 -4 12 -6 0 -8 6 -4 13 4 7 3 9 -2 4 -5 -5 -9 -13 -9
-18 0 -5 -4 -9 -10 -9 -5 0 -10 4 -10 9 0 5 -4 13 -9 18 -5 4 -6 3 -3 -3 4 -7
1 -17 -7 -23 -11 -9 -14 -9 -13 1 1 32 -4 49 -13 43 -5 -3 -10 -2 -10 4 0 5 6
12 13 15 10 5 10 7 0 12 -7 3 -13 10 -13 15 0 6 4 8 9 5 10 -7 9 13 -2 31 -4
6 -2 15 4 19 8 5 9 3 4 -6 -6 -9 -4 -11 5 -5 10 6 9 11 -5 22 -15 10 -16 16
-7 25 15 15 16 32 2 23 -5 -3 -10 -1 -10 4 0 6 6 11 13 11 8 0 7 4 -3 10 -13
9 -8 14 11 12 4 -1 5 8 2 18 -3 11 -9 20 -13 20 -10 0 -7 56 3 66 11 11 8 26
-3 19 -5 -3 -10 -1 -10 4 0 6 6 11 13 11 8 0 7 4 -3 10 -13 9 -8 14 11 12 4
-1 5 8 2 18 -3 11 -9 20 -13 20 -10 0 -7 56 3 66 11 11 8 26 -3 19 -5 -3 -10
-1 -10 4 0 6 6 11 13 11 8 0 7 4 -3 10 -13 9 -8 14 11 12 4 -1 5 8 2 18 -3 11
-9 20 -14 20 -5 0 -9 5 -9 11 0 5 4 8 9 4 5 -3 13 0 17 6 4 7 3 9 -4 5 -6 -3
-13 -2 -17 4 -3 5 1 10 9 10 9 0 16 4 16 10 0 5 -6 8 -12 6 -7 -1 -10 -1 -5 1
4 3 4 10 0 16 -3 7 3 4 15 -7 21 -18 21 -18 17 2 -3 15 0 19 11 15 9 -3 13
-13 10 -22z m-540 -19 c-3 -3 -1 -11 6 -19 8 -11 7 -12 -5 -7 -9 3 -15 14 -14
24 1 10 5 16 10 13 4 -3 6 -8 3 -11z m1329 8 c3 -5 1 -10 -4 -10 -6 0 -11 5
-11 10 0 6 2 10 4 10 3 0 8 -4 11 -10z m-1329 -88 c-3 -3 -1 -11 6 -19 8 -11
7 -12 -5 -7 -9 3 -15 14 -14 24 1 10 5 16 10 13 4 -3 6 -8 3 -11z m2044 -56
c0 -2 -8 -10 -17 -17 -16 -13 -17 -12 -4 4 13 16 21 21 21 13z m-2044 -24 c-3
-3 -1 -11 6 -19 8 -11 7 -12 -5 -7 -9 3 -15 14 -14 24 1 10 5 16 10 13 4 -3 6
-8 3 -11z m0 -80 c-3 -3 -1 -11 6 -19 8 -11 7 -12 -5 -7 -9 3 -15 14 -14 24 1
10 5 16 10 13 4 -3 6 -8 3 -11z m-1 -52 c-3 -4 0 -11 5 -13 6 -3 5 -4 -1 -3
-7 1 -13 10 -15 19 -1 9 2 15 7 11 5 -3 7 -9 4 -14z m15 -162 c0 -5 -7 -3 -15
6 -8 8 -15 18 -15 22 0 3 7 1 15 -6 8 -7 15 -17 15 -22z m2038 -43 c-6 -14
-13 -23 -15 -21 -5 5 15 46 22 46 3 0 -1 -11 -7 -25z m-2052 -143 c-3 -3 -1
-11 6 -19 8 -11 7 -12 -5 -7 -9 3 -15 14 -14 24 1 10 5 16 10 13 4 -3 6 -8 3
-11z m0 -80 c-3 -3 -1 -11 6 -19 8 -11 7 -12 -5 -7 -9 3 -15 14 -14 24 1 10 5
16 10 13 4 -3 6 -8 3 -11z m-2 -62 c-6 -6 -10 -3 -10 10 0 13 4 16 10 10 7 -7
7 -13 0 -20z"/>
<path d="M3260 3656 c0 -2 8 -10 18 -17 15 -13 16 -12 3 4 -13 16 -21 21 -21
13z"/>
<path d="M3290 3656 c0 -2 8 -10 18 -17 15 -13 16 -12 3 4 -13 16 -21 21 -21
13z"/>
<path d="M3613 3643 c0 -9 4 -10 14 -2 7 6 13 12 13 14 0 1 -6 2 -13 2 -8 0
-14 -6 -14 -14z"/>
<path d="M3826 3648 c3 -4 9 -8 15 -8 5 0 9 4 9 8 0 5 -7 9 -15 9 -8 0 -12 -4
-9 -9z"/>
<path d="M3863 3645 c0 -8 4 -12 9 -9 5 3 6 10 3 15 -9 13 -12 11 -12 -6z"/>
<path d="M3556 2708 c3 -5 10 -6 15 -3 13 9 11 12 -6 12 -8 0 -12 -4 -9 -9z"/>
<path d="M3986 2702 c-3 -5 1 -9 9 -9 8 0 12 4 9 9 -3 4 -7 8 -9 8 -2 0 -6 -4
-9 -8z"/>
<path d="M3243 2515 c0 -8 4 -12 9 -9 5 3 6 10 3 15 -9 13 -12 11 -12 -6z"/>
<path d="M3243 2355 c0 -8 4 -12 9 -9 5 3 6 10 3 15 -9 13 -12 11 -12 -6z"/>
<path d="M4170 2136 c0 -2 7 -7 16 -10 8 -3 12 -2 9 4 -6 10 -25 14 -25 6z"/>
<path d="M3331 2074 c0 -11 3 -14 6 -6 3 7 2 16 -1 19 -3 4 -6 -2 -5 -13z"/>
<path d="M3375 2081 c-3 -5 -2 -12 3 -15 5 -3 9 1 9 9 0 17 -3 19 -12 6z"/>
<path d="M3495 2081 c-3 -5 -2 -12 3 -15 5 -3 9 1 9 9 0 17 -3 19 -12 6z"/>
<path d="M3919 2073 c-13 -16 -12 -17 4 -4 9 7 17 15 17 17 0 8 -8 3 -21 -13z"/>
<path d="M3957 2080 c18 -20 43 -22 35 -2 -4 11 -7 12 -10 4 -3 -10 -7 -10
-20 0 -14 10 -15 10 -5 -2z"/>
<path d="M3566 2063 c-6 -14 -5 -15 5 -6 7 7 10 15 7 18 -3 3 -9 -2 -12 -12z"/>
<path d="M3686 2063 c-6 -14 -5 -15 5 -6 7 7 10 15 7 18 -3 3 -9 -2 -12 -12z"/>
<path d="M3806 2063 c-6 -14 -5 -15 5 -6 7 7 10 15 7 18 -3 3 -9 -2 -12 -12z"/>
<path d="M1355 3999 c-4 -6 -5 -12 -2 -15 2 -3 7 2 10 11 7 17 1 20 -8 4z"/>
<path d="M1606 3942 c-3 -5 1 -9 9 -9 8 0 12 4 9 9 -3 4 -7 8 -9 8 -2 0 -6 -4
-9 -8z"/>
<path d="M1990 3756 c0 -2 7 -9 15 -16 9 -7 15 -8 15 -2 0 5 -7 12 -15 16 -8
3 -15 4 -15 2z"/>
<path d="M254 3709 c-4 -7 -2 -15 5 -17 8 -3 9 -8 2 -16 -8 -9 -7 -13 3 -13 7
0 12 10 12 23 -2 29 -12 39 -22 23z"/>
<path d="M254 3469 c-4 -7 -2 -15 5 -17 8 -3 9 -8 2 -16 -8 -9 -7 -13 3 -13 7
0 12 10 12 23 -2 29 -12 39 -22 23z"/>
<path d="M2361 2994 c0 -11 3 -14 6 -6 3 7 2 16 -1 19 -3 4 -6 -2 -5 -13z"/>
<path d="M2380 2939 c0 -5 -4 -7 -10 -4 -14 9 -12 -1 3 -13 10 -8 13 -6 14 9
1 10 0 19 -3 19 -2 0 -4 -5 -4 -11z"/>
<path d="M2364 2806 c1 -6 5 -16 9 -23 4 -6 1 -14 -5 -16 -9 -4 -10 -6 -1 -6
16 -1 26 16 13 24 -8 5 -8 11 -1 19 8 9 7 13 -3 13 -8 0 -13 -5 -12 -11z"/>
<path d="M254 2749 c-4 -7 -2 -15 5 -17 8 -3 9 -8 2 -16 -8 -9 -7 -13 3 -13 7
0 12 10 12 23 -2 29 -12 39 -22 23z"/>
<path d="M2355 2720 c-4 -6 1 -7 11 -3 13 5 15 3 9 -7 -5 -9 -4 -11 4 -6 6 4
9 12 6 17 -8 12 -22 12 -30 -1z"/>
<path d="M2353 2687 c0 -8 6 -14 14 -14 9 0 10 4 2 14 -6 7 -12 13 -14 13 -1
0 -2 -6 -2 -13z"/>
<path d="M2319 2513 c-13 -15 -12 -15 9 -4 23 12 28 21 13 21 -5 0 -15 -7 -22
-17z"/>
<path d="M254 2509 c-4 -7 -2 -15 5 -17 8 -3 9 -8 2 -16 -8 -9 -7 -13 3 -13 7
0 12 10 12 23 -2 29 -12 39 -22 23z"/>
<path d="M4826 2372 c-3 -5 1 -9 9 -9 8 0 12 4 9 9 -3 4 -7 8 -9 8 -2 0 -6 -4
-9 -8z"/>
<path d="M2046 2012 c-3 -5 1 -9 9 -9 8 0 12 4 9 9 -3 4 -7 8 -9 8 -2 0 -6 -4
-9 -8z"/>
<path d="M2030 1979 c0 -5 5 -7 10 -4 6 3 10 8 10 11 0 2 -4 4 -10 4 -5 0 -10
-5 -10 -11z"/>
<path d="M4460 1800 c-8 -5 -10 -10 -5 -10 6 0 17 5 25 10 8 5 11 10 5 10 -5
0 -17 -5 -25 -10z"/>
<path d="M1643 1773 c-17 -6 -17 -20 0 -20 8 0 14 6 14 14 0 7 -1 13 -1 12 -1
0 -7 -3 -13 -6z"/>
<path d="M1465 1721 c-3 -5 -2 -12 3 -15 5 -3 9 1 9 9 0 17 -3 19 -12 6z"/>
</g>
</svg>
